<svg width="28" height="26" viewBox="0 0 28 26" fill="none" xmlns="http://www.w3.org/2000/svg">
<path d="M4.29629 6.43383L13.2158 11.7662L22.1353 6.43383V9.63323H24.3652V4.3009C24.3652 3.12779 23.3618 2.16797 22.1353 2.16797H4.29629C3.06985 2.16797 2.07756 3.12779 2.07756 4.3009L2.06641 17.0985C2.06641 18.2716 3.06985 19.2314 4.29629 19.2314H15.4457V17.0985H4.29629V6.43383ZM22.1353 4.3009L13.2158 9.63323L4.29629 4.3009H22.1353Z" fill="black"/>
<path d="M24.3654 14.965V19.2309C24.3654 20.404 23.362 21.3638 22.1355 21.3638C20.9091 21.3638 19.9057 20.404 19.9057 19.2309V14.4318C19.9057 14.1332 20.151 13.8986 20.4631 13.8986C20.7753 13.8986 21.0206 14.1332 21.0206 14.4318V19.2309H23.2505V14.4318C23.2505 13.7247 22.9568 13.0465 22.4341 12.5465C21.9114 12.0465 21.2024 11.7656 20.4631 11.7656C19.7239 11.7656 19.0149 12.0465 18.4922 12.5465C17.9694 13.0465 17.6758 13.7247 17.6758 14.4318V19.2309C17.6758 21.5878 19.6715 23.4967 22.1355 23.4967C24.5996 23.4967 26.5953 21.5878 26.5953 19.2309V14.965H24.3654Z" fill="black"/>
</svg>
