<svg width="46" height="46" viewBox="0 0 46 46" fill="none" xmlns="http://www.w3.org/2000/svg">
<path d="M25.5469 5.68359C20.9006 5.68359 15.7256 6.47391 11.8781 10.7377C8.03625 15.0014 5.68359 22.3898 5.68359 35.2148V36.6211H17.8561C19.2483 37.5 20.8134 38.0273 22.5586 38.0273C24.3023 38.0273 25.8703 37.4888 27.2611 36.6211H40.8398V35.2148C40.8398 23.7891 38.632 17.153 35.7422 13.2858C33.1969 9.88266 30.2691 8.93484 28.095 8.71547L26.7773 6.38672L26.3836 5.68359H25.5469ZM24.7552 8.58469L25.8984 10.6055L26.2922 11.3086H27.1289C28.5492 11.3086 31.1339 11.7867 33.4992 14.9564C35.7577 17.9742 37.7461 23.7258 37.9402 33.8086H30.3816C30.5362 33.6117 30.6769 33.398 30.8217 33.1927C32.73 30.4688 33.8086 27.0684 33.8086 23.9648H30.9961C30.9961 26.3864 30.0905 29.3466 28.5352 31.567C26.9798 33.7889 24.9 35.2148 22.5586 35.2148C20.22 35.2148 18.1388 33.7945 16.582 31.567C15.0253 29.3423 14.1211 26.3695 14.1211 23.9648C14.1211 23.3405 14.2406 23.0269 14.4305 22.778C14.6161 22.5291 14.9423 22.3139 15.4388 22.1198C16.433 21.7261 18.1106 21.5644 19.8783 21.4167C21.6473 21.2677 23.4923 21.127 25.1517 20.362C26.8111 19.5956 28.1836 17.8617 28.1836 15.5273H25.3711C25.3711 16.9955 24.9858 17.3611 24.007 17.8125C23.0311 18.2625 21.3605 18.4566 19.6139 18.6042C17.8673 18.7505 16.028 18.8334 14.3827 19.4817C13.5628 19.8052 12.7683 20.2945 12.1889 21.0652C11.6039 21.8344 11.3086 22.8652 11.3086 23.9648C11.3086 27.0558 12.3886 30.4195 14.2969 33.1477C14.4516 33.3727 14.6133 33.5948 14.7806 33.8086H8.58047C8.77031 22.3294 10.9852 15.9548 13.9861 12.6263C16.9223 9.37219 20.7122 8.66766 24.7523 8.58469H24.7552ZM18.3398 23.9648C17.9669 23.9648 17.6092 24.113 17.3455 24.3767C17.0818 24.6404 16.9336 24.9981 16.9336 25.3711C16.9336 25.7441 17.0818 26.1017 17.3455 26.3655C17.6092 26.6292 17.9669 26.7773 18.3398 26.7773C18.7128 26.7773 19.0705 26.6292 19.3342 26.3655C19.5979 26.1017 19.7461 25.7441 19.7461 25.3711C19.7461 24.9981 19.5979 24.6404 19.3342 24.3767C19.0705 24.113 18.7128 23.9648 18.3398 23.9648ZM26.7773 23.9648C26.4044 23.9648 26.0467 24.113 25.783 24.3767C25.5193 24.6404 25.3711 24.9981 25.3711 25.3711C25.3711 25.7441 25.5193 26.1017 25.783 26.3655C26.0467 26.6292 26.4044 26.7773 26.7773 26.7773C27.1503 26.7773 27.508 26.6292 27.7717 26.3655C28.0354 26.1017 28.1836 25.7441 28.1836 25.3711C28.1836 24.9981 28.0354 24.6404 27.7717 24.3767C27.508 24.113 27.1503 23.9648 26.7773 23.9648Z" fill="#C4C4C4"/>
</svg>
