<svg width="46" height="46" viewBox="0 0 46 46" fill="none" xmlns="http://www.w3.org/2000/svg">
<path d="M25.96 5.68359C20.8046 5.68359 16.8953 6.89578 14.2698 9.375C11.6471 11.8542 10.4912 15.4683 10.4912 19.7461V21.0202C9.68684 21.7852 9.08496 22.7695 9.08496 23.9648C9.08496 25.7367 10.3365 26.9939 11.8975 27.6127C12.4178 29.2537 12.9845 30.9778 13.6131 32.4459C14.2951 34.0519 14.9125 35.3259 15.7646 36.2288C16.7107 37.2392 17.854 38.0446 19.124 38.5953C20.3939 39.1459 21.7633 39.43 23.1475 39.43C24.5316 39.43 25.901 39.1459 27.171 38.5953C28.4409 38.0446 29.5842 37.2392 30.5303 36.2288C31.3825 35.3259 31.9548 34.0519 32.6396 32.4459C33.2668 30.9778 33.8771 29.2537 34.3975 27.6141C35.9584 26.9953 37.21 25.7381 37.21 23.9662C37.21 22.7766 36.6053 21.7908 35.8037 21.0216V19.7461C35.8037 15.7748 34.8995 12.9483 33.3006 11.0892C31.9421 9.51422 30.1295 8.86734 28.3337 8.67047L27.234 6.47672L26.8403 5.68359H25.96ZM25.1246 8.58469L26.0921 10.5183C26.5604 11.4548 26.7432 12.1214 26.7503 12.4069C26.7587 12.6938 26.7686 12.5756 26.7081 12.6291C26.5857 12.7317 25.4003 13.0369 23.9378 13.1114C22.4753 13.1873 20.754 13.1508 19.1481 13.7723C17.545 14.3939 16.1345 16.0603 16.1162 18.3427H18.9287C18.94 16.9561 19.262 16.7564 20.1592 16.4091C21.0564 16.0617 22.6032 15.9591 24.115 15.8817C25.6253 15.8044 27.1848 15.8958 28.5095 14.7848C29.1704 14.2266 29.5923 13.2661 29.5642 12.3239C29.5571 12.1158 29.5079 11.9161 29.4756 11.7052C30.1201 11.9813 30.6919 12.403 31.1462 12.937C32.1657 14.1211 32.9912 16.2052 32.9912 19.7461V22.3392L33.6943 22.733C34.1218 22.9819 34.3975 23.4305 34.3975 23.9648C34.4057 24.3178 34.2781 24.6605 34.041 24.9222C33.8039 25.1838 33.4755 25.3445 33.1234 25.3711L32.1559 25.4133L31.8929 26.3372C31.3753 28.0219 30.7736 29.6796 30.0901 31.3041C29.4573 32.7891 28.7303 34.0547 28.5081 34.2909C25.5128 37.455 20.7779 37.455 17.7854 34.2909C17.5604 34.0547 16.8362 32.7891 16.202 31.3027C15.5202 29.6778 14.9194 28.0202 14.402 26.3358L14.1376 25.4119L13.1701 25.3697C12.8185 25.3428 12.4906 25.1821 12.2539 24.9208C12.0172 24.6595 11.8896 24.3174 11.8975 23.9648C11.8975 23.4389 12.1689 22.9833 12.6006 22.7344L13.3037 22.3406V19.7461C13.3037 15.9534 14.2656 13.2267 16.2048 11.3958C18.0048 9.69422 20.9439 8.72391 25.1246 8.58328V8.58469ZM18.9287 22.5586C18.5557 22.5586 18.1981 22.7068 17.9343 22.9705C17.6706 23.2342 17.5225 23.5919 17.5225 23.9648C17.5225 24.3378 17.6706 24.6955 17.9343 24.9592C18.1981 25.2229 18.5557 25.3711 18.9287 25.3711C19.3017 25.3711 19.6594 25.2229 19.9231 24.9592C20.1868 24.6955 20.335 24.3378 20.335 23.9648C20.335 23.5919 20.1868 23.2342 19.9231 22.9705C19.6594 22.7068 19.3017 22.5586 18.9287 22.5586ZM27.3662 22.5586C26.9932 22.5586 26.6356 22.7068 26.3718 22.9705C26.1081 23.2342 25.96 23.5919 25.96 23.9648C25.96 24.3378 26.1081 24.6955 26.3718 24.9592C26.6356 25.2229 26.9932 25.3711 27.3662 25.3711C27.7392 25.3711 28.0969 25.2229 28.3606 24.9592C28.6243 24.6955 28.7725 24.3378 28.7725 23.9648C28.7725 23.5919 28.6243 23.2342 28.3606 22.9705C28.0969 22.7068 27.7392 22.5586 27.3662 22.5586Z" fill="#C4C4C4"/>
</svg>
