<svg width="31" height="30" viewBox="0 0 31 30" fill="none" xmlns="http://www.w3.org/2000/svg">
<path d="M21.3553 17.5883C21.0333 17.4292 19.4293 16.6737 19.131 16.5714C18.8326 16.4635 18.614 16.4123 18.3984 16.7305C18.1798 17.0457 17.5594 17.7473 17.3645 17.9603C17.1754 18.1705 16.9834 18.1961 16.6614 18.0399C14.7473 17.1196 13.4918 16.3981 12.2305 14.3161C11.8967 13.7623 12.5643 13.802 13.1875 12.6062C13.2939 12.3961 13.2407 12.2171 13.158 12.0581C13.0753 11.899 12.4254 10.3595 12.1537 9.73179C11.8907 9.12111 11.619 9.20632 11.4211 9.19496C11.232 9.18359 11.0164 9.18359 10.7978 9.18359C10.5792 9.18359 10.2277 9.26312 9.9293 9.57273C9.63095 9.88801 8.78906 10.6464 8.78906 12.1859C8.78906 13.7254 9.95589 15.2165 10.1154 15.4267C10.2808 15.6369 12.4107 18.7954 15.6807 20.156C17.7485 21.0137 18.5579 21.0876 19.5918 20.9399C20.221 20.849 21.5178 20.1844 21.7866 19.4487C22.0554 18.7159 22.0554 18.0882 21.9757 17.9575C21.8959 17.8183 21.6773 17.7388 21.3553 17.5883Z" fill="#60A234"/>
<path d="M27.6098 10.1612C26.9422 8.63589 25.9851 7.26683 24.7651 6.09092C23.5451 4.91784 22.1213 3.99472 20.5321 3.35564C18.9074 2.69951 17.1823 2.36719 15.404 2.36719H15.3449C13.5548 2.37571 11.8208 2.71655 10.1902 3.38688C8.61569 4.03449 7.20369 4.95477 5.9955 6.12784C4.78732 7.30091 3.83909 8.66429 3.18331 10.1839C2.50389 11.7575 2.16123 13.4304 2.17009 15.1517C2.17895 17.1229 2.66931 19.0799 3.588 20.8296V25.147C3.588 25.8684 4.19653 26.4535 4.94684 26.4535H9.43985C11.2595 27.3369 13.2948 27.8084 15.3449 27.8169H15.4069C17.1763 27.8169 18.8926 27.4874 20.5084 26.8427C22.0888 26.2093 23.5097 25.3004 24.7267 24.1386C25.9467 22.9769 26.9068 21.6192 27.5773 20.1053C28.2745 18.5374 28.629 16.8701 28.6378 15.1489C28.6467 13.4191 28.2981 11.7404 27.6098 10.1612ZM23.1464 22.602C21.0756 24.5732 18.3284 25.6582 15.404 25.6582H15.3537C13.5725 25.6497 11.803 25.2237 10.2404 24.4227L9.99225 24.2949H5.83303V20.2956L5.70011 20.057C4.86708 18.5545 4.42398 16.8531 4.41512 15.1403C4.4033 12.3085 5.52877 9.6499 7.59361 7.64744C9.6555 5.64498 12.4116 4.53723 15.3567 4.52587H15.4069C16.8839 4.52587 18.3166 4.80139 19.6666 5.34674C20.984 5.87789 22.1656 6.64195 23.1818 7.61904C24.195 8.59328 24.9926 9.73227 25.545 10.9991C26.1181 12.3113 26.4046 13.7031 26.3987 15.1403C26.381 17.9694 25.226 20.6194 23.1464 22.602Z" fill="#60A234"/>
</svg>
