<svg width="195" height="562" viewBox="0 0 195 562" fill="none" xmlns="http://www.w3.org/2000/svg">
<g clip-path="url(#clip0_1008_1214)">
<path d="M126.277 259.705C109.309 290.547 90.9506 320.29 62.3278 344.772C33.3507 369.34 -5.8263 388.918 -44.3374 392.533C-83.203 396.234 -121.468 383.702 -158.576 369.739C-195.265 355.962 -230.862 340.483 -252.461 316.143C-274.126 291.531 -281.792 258.059 -290.025 217.542C-298.259 177.025 -306.64 129.65 -279.573 101.812C-252.507 73.9729 -189.993 65.6729 -133.408 46.7474C-76.8223 27.8219 -26.5188 -1.64251 15.9727 0.382295C58.4641 2.40699 92.7238 35.7355 117.828 68.417C142.511 100.913 158.104 133.034 158.255 164.885C158.406 196.737 143.246 228.863 126.277 259.705Z" fill="#EFBC3F" fill-opacity="0.8"/>
<g style="mix-blend-mode:multiply">
<g style="mix-blend-mode:multiply">
<path d="M28.6198 148.021C70.0833 163.272 109.825 180.029 140.878 207.713C172.01 235.756 194.845 274.641 195.224 313.976C195.682 353.67 173.292 393.901 149.026 433.046C125.072 471.745 98.8499 509.444 61.8343 533.382C24.4275 557.406 -23.7725 567.669 -81.9878 579.016C-140.203 590.364 -208.121 602.351 -244.104 576.505C-280.088 550.66 -284.137 486.981 -303.915 430.152C-323.693 373.324 -359.122 323.704 -351.049 279.875C-342.977 236.046 -291.718 198.453 -242.495 170.319C-193.586 142.63 -146.322 124.314 -101.332 121.892C-56.3421 119.47 -12.8437 132.77 28.6198 148.021Z" fill="#F0826E" fill-opacity="0.8"/>
</g>
</g>
</g>
<defs>
<clipPath id="clip0_1008_1214">
<rect width="195" height="562" fill="white"/>
</clipPath>
</defs>
</svg>
