<svg width="240" height="552" viewBox="0 0 240 552" fill="none" xmlns="http://www.w3.org/2000/svg">
<g clip-path="url(#clip0_1008_1218)">
<path d="M478.276 219.705C461.308 250.547 442.95 280.29 414.327 304.772C385.35 329.34 346.173 348.918 307.662 352.533C268.796 356.234 230.531 343.702 193.423 329.739C156.734 315.962 121.137 300.483 99.5384 276.143C77.8734 251.531 70.2074 218.059 61.974 177.542C53.7407 137.025 45.3598 89.6499 72.4261 61.8119C99.4924 33.9729 162.006 25.6729 218.591 6.74739C275.177 -12.1781 325.481 -41.6425 367.972 -39.6177C410.464 -37.593 444.723 -4.26451 469.827 28.417C494.51 60.9129 510.103 93.0339 510.254 124.885C510.405 156.737 495.245 188.863 478.276 219.705Z" fill="#EFBC3F" fill-opacity="0.8"/>
<g style="mix-blend-mode:multiply">
<g style="mix-blend-mode:multiply">
<path d="M380.62 108.021C422.084 123.272 461.826 140.029 492.879 167.713C524.011 195.756 546.846 234.641 547.225 273.976C547.683 313.67 525.293 353.901 501.027 393.046C477.073 431.745 450.851 469.444 413.835 493.382C376.428 517.406 328.228 527.669 270.013 539.016C211.798 550.364 143.88 562.351 107.897 536.505C71.9129 510.66 67.8635 446.981 48.0855 390.152C28.3076 333.324 -7.121 283.704 0.951205 239.875C9.0233 196.046 60.283 158.453 109.506 130.319C158.415 102.63 205.679 84.3139 250.669 81.8919C295.659 79.4699 339.157 92.7699 380.62 108.021Z" fill="#F0826E" fill-opacity="0.8"/>
</g>
</g>
</g>
<defs>
<clipPath id="clip0_1008_1218">
<rect width="240" height="552" fill="white"/>
</clipPath>
</defs>
</svg>
