<svg width="45" height="45" viewBox="0 0 45 45" fill="none" xmlns="http://www.w3.org/2000/svg">
<path d="M35.8269 19.1007C34.9081 16.9429 33.4736 15.0436 31.6494 13.5696C29.8253 12.0955 27.6671 11.0918 25.3645 10.6466L27.4446 7.31851L25.3349 6L22.5903 10.3915C19.7945 10.4045 17.0637 11.2362 14.7355 12.784C12.4072 14.3318 10.5834 16.5278 9.48938 19.1007C8.02398 19.1286 6.62801 19.7303 5.60153 20.7764C4.57504 21.8226 4 23.2298 4 24.6954C4 26.1611 4.57504 27.5682 5.60153 28.6144C6.62801 29.6606 8.02398 30.2623 9.48938 30.2901C10.588 32.8736 12.4223 35.0768 14.7639 36.6255C17.1054 38.1742 19.8508 39 22.6581 39C25.4655 39 28.2108 38.1742 30.5524 36.6255C32.8939 35.0768 34.7282 32.8736 35.8269 30.2901C37.2923 30.2623 38.6882 29.6606 39.7147 28.6144C40.7412 27.5682 41.3162 26.1611 41.3162 24.6954C41.3162 23.2298 40.7412 21.8226 39.7147 20.7764C38.6882 19.7303 37.2923 19.1286 35.8269 19.1007ZM37.9377 26.873C37.3688 27.4549 36.5933 27.789 35.7796 27.8029L34.1684 27.8335L33.5377 29.3163C32.6302 31.4509 31.1148 33.2713 29.1803 34.5509C27.2458 35.8306 24.9776 36.5129 22.6582 36.5129C20.3387 36.5129 18.0705 35.8306 16.136 34.5509C14.2015 33.2713 12.6861 31.4509 11.7787 29.3163L11.1479 27.8335L9.53665 27.8029C8.72257 27.7876 7.94699 27.4535 7.37667 26.8724C6.80634 26.2913 6.48683 25.5096 6.48683 24.6954C6.48683 23.8812 6.80634 23.0995 7.37667 22.5184C7.94699 21.9373 8.72257 21.6032 9.53665 21.588L11.1479 21.5574L11.7787 20.0745C12.6862 17.94 14.2015 16.1196 16.136 14.84C18.0706 13.5604 20.3387 12.8781 22.6582 12.8781C24.9776 12.8781 27.2458 13.5604 29.1803 14.84C31.1148 16.1196 32.6301 17.94 33.5377 20.0745L34.1684 21.5574L35.7796 21.588C36.3868 21.5995 36.9773 21.7886 37.4782 22.132C37.979 22.4754 38.3683 22.9581 38.5979 23.5203C38.8275 24.0825 38.8873 24.6997 38.77 25.2955C38.6527 25.8914 38.3633 26.4398 37.9377 26.873V26.873Z" fill="#C4C4C4"/>
<path d="M14.4121 20.2773H18.1604V24.0256H14.4121V20.2773ZM27.1563 20.2773H30.9046V24.0256H27.1563V20.2773ZM22.6583 34.5208C23.6428 34.5208 24.6176 34.3269 25.5271 33.9502C26.4367 33.5734 27.2631 33.0212 27.9592 32.3251C28.6553 31.629 29.2075 30.8026 29.5843 29.8931C29.961 28.9835 30.1549 28.0087 30.1549 27.0243H15.1618C15.1618 28.0087 15.3557 28.9835 15.7324 29.8931C16.1091 30.8026 16.6613 31.629 17.3575 32.3251C18.7633 33.731 20.6701 34.5208 22.6583 34.5208V34.5208Z" fill="#C4C4C4"/>
</svg>
