<svg width="24" height="24" viewBox="0 0 24 24" fill="none" xmlns="http://www.w3.org/2000/svg">
<path fill-rule="evenodd" clip-rule="evenodd" d="M4.90614 1.63367C5.71503 0.823152 7.10863 0.734279 7.92757 1.67921L11.2864 5.55635C11.2947 5.5652 11.3028 5.57422 11.3108 5.58342C12.0501 6.43697 11.8987 7.66893 11.1627 8.40853L11.1613 8.40999L10.089 9.48304C11.1957 11.2788 12.7063 12.7916 14.5004 13.901L15.5749 12.8249C16.3112 12.0868 17.5393 11.9342 18.3922 12.6664C18.3923 12.6664 18.3922 12.6663 18.3922 12.6664L22.3122 16.0314C23.2649 16.8498 23.1773 18.2499 22.366 19.0612L19.5586 21.8736C18.457 22.9765 16.7738 23.3355 15.3702 22.6537C9.24675 19.6855 4.30492 14.7367 1.34541 8.60905C0.66507 7.20523 1.02351 5.5228 2.12414 4.42067M2.12414 4.42067L4.90614 1.63367C4.90619 1.63362 4.90609 1.63372 4.90614 1.63367M14.1954 14.2068C14.1982 14.2039 14.201 14.2009 14.2039 14.1981L14.1954 14.2068ZM9.78464 9.78723L9.79356 9.77851C9.79062 9.78145 9.78765 9.78436 9.78464 9.78723ZM9.79396 6.88445C9.79401 6.88442 9.79419 6.88487 9.7944 6.88589ZM9.79483 6.88903L6.42414 2.99824C6.42294 2.99817 6.42158 2.99813 6.42003 2.99814C6.39986 2.99821 6.36123 3.00692 6.32177 3.04647L3.53963 5.83361C2.98487 6.38904 2.86903 7.16778 3.14553 7.73753L3.14636 7.73923C5.91 13.4613 10.5248 18.0826 16.2431 20.8543C16.8113 21.1303 17.5888 21.0155 18.1431 20.4607C18.1432 20.4606 18.1431 20.4607 18.1431 20.4607L20.9511 17.6477C20.991 17.6078 21.0007 17.5677 21.0008 17.5465C21.0008 17.5444 21.0007 17.5427 21.0006 17.5412L17.0954 14.1889C17.093 14.1887 17.0895 14.1887 17.0846 14.189C17.0626 14.1906 17.0263 14.2018 16.9908 14.2374L15.6323 15.598C15.4126 15.8237 15.1257 15.9725 14.8144 16.022C14.4983 16.0723 14.1744 16.0175 13.8924 15.8659C13.8879 15.8635 13.8834 15.861 13.8789 15.8585C13.8748 15.8563 13.8708 15.854 13.8669 15.8517C11.4841 14.4796 9.50764 12.5005 8.13865 10.116C8.13401 10.108 8.12948 10.0998 8.12507 10.0916C7.97348 9.80958 7.91859 9.48563 7.96882 9.16942C8.01827 8.85812 8.16691 8.57124 8.39242 8.35139L9.74507 6.99775C9.74522 6.9976 9.74492 6.9979 9.74507 6.99775C9.78119 6.96123 9.79319 6.92331 9.79478 6.90032C9.79513 6.89525 9.79505 6.89157 9.79483 6.88903ZM17.0992 14.1896C17.0991 14.1896 17.0987 14.1895 17.0979 14.1893ZM17.0895 14.1839C17.0896 14.1839 17.0895 14.1839 17.0895 14.1839Z" fill="black"/>
</svg>
