<svg width="294" height="739" viewBox="0 0 294 739" fill="none" xmlns="http://www.w3.org/2000/svg">
<g style="mix-blend-mode:multiply">
<path d="M47.629 72.7735C87.6083 91.8947 125.735 112.37 154.21 143.021C182.732 174.038 202.001 215.179 198.833 254.712C195.711 294.611 169.754 332.952 142.022 370.028C114.643 406.687 85.0909 442.133 46.0149 462.77C6.54096 483.458 -42.4572 489.337 -101.542 495.385C-160.627 501.433 -229.446 507.232 -263.004 477.976C-296.563 448.719 -294.86 384.406 -309.463 325.528C-324.066 266.649 -354.927 213.572 -342.925 170.304C-330.923 127.036 -276.41 93.9947 -224.781 70.2655C-173.504 46.9539 -124.714 32.9031 -79.6243 34.6031C-34.535 36.3031 7.64971 53.6523 47.629 72.7735Z" fill="#1E9394" fill-opacity="0.8"/>
</g>
<g style="mix-blend-mode:multiply">
<path d="M-101.183 169.132C-59.7844 153.412 -18.717 139.982 22.8339 140.651C64.6765 141.542 107.244 156.209 133.039 186.054C159.126 216.121 168.199 261.69 175.14 307.668C182.031 353.099 186.549 399.263 173.941 442.028C161.093 485.117 131.118 524.807 94.2363 571.943C57.3541 619.078 13.5137 673.112 -30.5911 677.106C-74.696 681.1 -119.065 635.055 -170.945 604.64C-222.825 574.225 -281.925 559.664 -304.211 520.799C-326.497 481.934 -311.92 419.312 -292.756 365.274C-273.543 311.783 -249.502 266.55 -216.882 234.98C-184.263 203.409 -142.583 184.853 -101.183 169.132Z" fill="#A8D08E" fill-opacity="0.8"/>
</g>
</svg>
