<svg width="227" height="739" viewBox="0 0 227 739" fill="none" xmlns="http://www.w3.org/2000/svg">
<g style="mix-blend-mode:multiply">
<path d="M437.629 72.7735C477.608 91.8947 515.735 112.37 544.21 143.021C572.732 174.038 592.001 215.179 588.833 254.712C585.711 294.611 559.754 332.952 532.022 370.028C504.643 406.687 475.091 442.133 436.015 462.77C396.541 483.458 347.543 489.337 288.458 495.385C229.373 501.433 160.554 507.232 126.996 477.976C93.4375 448.719 95.1396 384.406 80.5369 325.528C65.9343 266.649 35.0726 213.572 47.0747 170.304C59.0768 127.036 113.59 93.9947 165.219 70.2655C216.496 46.9539 265.286 32.9031 310.376 34.6031C355.465 36.3031 397.65 53.6523 437.629 72.7735Z" fill="#1E9394" fill-opacity="0.8"/>
</g>
<g style="mix-blend-mode:multiply">
<path d="M288.817 169.132C330.216 153.412 371.283 139.982 412.834 140.651C454.676 141.542 497.244 156.209 523.039 186.054C549.126 216.121 558.199 261.69 565.14 307.668C572.031 353.099 576.549 399.263 563.941 442.028C551.093 485.117 521.118 524.807 484.236 571.943C447.354 619.078 403.514 673.112 359.409 677.106C315.304 681.1 270.935 635.055 219.055 604.64C167.175 574.225 108.075 559.664 85.7893 520.799C63.5031 481.934 78.0804 419.312 97.2437 365.274C116.457 311.783 140.498 266.55 173.118 234.98C205.737 203.409 247.417 184.853 288.817 169.132Z" fill="#A8D08E" fill-opacity="0.8"/>
</g>
</svg>
