<svg width="227" height="672" viewBox="0 0 227 672" fill="none" xmlns="http://www.w3.org/2000/svg">
<path d="M143.346 287.704C126.377 318.546 108.019 348.289 79.3966 372.771C50.4195 397.339 11.2425 416.917 -27.2687 420.532C-66.1342 424.233 -104.399 411.701 -141.508 397.738C-178.196 383.961 -213.794 368.482 -235.393 344.142C-257.057 319.53 -264.724 286.058 -272.957 245.541C-281.19 205.024 -289.571 157.649 -262.505 129.811C-235.439 101.972 -172.925 93.672 -116.339 74.7465C-59.7535 55.821 -9.45 26.3566 33.0414 28.3814C75.5329 30.4061 109.793 63.7346 134.896 96.4161C159.58 128.912 175.172 161.033 175.323 192.884C175.474 224.736 160.314 256.862 143.346 287.704Z" fill="#EFBC3F" fill-opacity="0.8"/>
<g style="mix-blend-mode:multiply">
<path d="M10.8095 193.046C53.4861 208.029 94.3757 224.533 126.225 252.042C158.152 279.909 181.444 318.693 181.562 358.086C181.759 397.837 158.378 438.288 133.068 477.662C108.084 516.589 80.7657 554.53 42.4066 578.764C3.64318 603.087 -46.1612 613.705 -106.307 625.478C-166.453 637.252 -236.614 649.734 -273.562 624.102C-310.511 598.469 -314.247 534.721 -334.26 477.944C-354.273 421.168 -390.484 371.72 -381.851 327.768C-373.218 283.815 -320.067 245.804 -269.083 217.282C-218.426 189.207 -169.532 170.531 -123.094 167.79C-76.6568 165.048 -31.8671 178.063 10.8095 193.046Z" fill="#F0826E" fill-opacity="0.8"/>
</g>
</svg>
