<svg width="146" height="148" viewBox="0 0 146 148" fill="none" xmlns="http://www.w3.org/2000/svg">
<g clip-path="url(#clip0_1006_1207)">
<path d="M73.7484 110.73C74.5736 135.159 74.1754 159.433 65.7546 184.262C57.1523 209.269 40.6631 234.969 18.8856 250.939C-3.07339 267.086 -30.4564 273.365 -57.6563 278.378C-84.5388 283.351 -111.374 286.921 -132.982 280.198C-154.726 273.337 -171.243 256.184 -190.609 235.045C-209.976 213.907 -231.874 188.743 -225.581 162.477C-219.288 136.21 -184.804 108.842 -157.656 77.2826C-130.508 45.7226 -110.877 10.1516 -84.7062 -3.89273C-58.5354 -17.9365 -26.1421 -10.4119 0.53656 0.0135689C26.8979 10.4796 47.6804 23.9846 59.1188 42.8706C70.5572 61.7566 72.9232 86.3006 73.7484 110.73Z" fill="#EFBC3F" fill-opacity="0.8"/>
<g style="mix-blend-mode:multiply">
<g style="mix-blend-mode:multiply">
<path d="M-24.5325 79.3639C5.73467 73.5539 35.5073 69.2569 63.9696 74.5759C92.6063 80.0799 120.137 95.0079 134.378 118.263C148.794 141.702 149.718 173.66 149.13 205.644C148.571 237.252 146.297 269.079 132.655 296.596C118.81 324.305 93.5981 347.705 62.7741 375.342C31.9501 402.98 -4.45696 434.48 -35.2167 432.024C-65.9764 429.567 -91.0889 393.154 -123.181 366.459C-155.273 339.764 -194.17 322.971 -204.951 294.012C-215.731 265.053 -198.424 224.304 -178.966 189.911C-159.538 155.895 -137.756 128.043 -111.673 110.459C-85.5905 92.8749 -54.7997 85.1739 -24.5325 79.3639Z" fill="#F0826E" fill-opacity="0.8"/>
</g>
</g>
</g>
<defs>
<clipPath id="clip0_1006_1207">
<rect width="146" height="148" fill="white"/>
</clipPath>
</defs>
</svg>
