<svg width="160" height="36" viewBox="0 0 160 36" fill="none" xmlns="http://www.w3.org/2000/svg">
<path d="M72.0872 32.1753H66.7603L59.6657 20.439L52.4994 32.1753H47.5547L56.9544 17.3008L48.1578 3.49052H53.3116L59.8807 14.338L66.4497 3.49052H71.4482L62.5979 17.3975L72.0872 32.1753ZM98.2859 3.49052C97.3722 13.3706 102.884 33.1488 86.9393 32.5623C71.1854 33.1669 76.7871 13.2133 75.8137 3.49052H80.4658V21.6301C80.4658 26.292 82.5022 28.5413 87.0945 28.5595C91.4739 28.5595 93.6636 26.2376 93.6636 21.5938V3.49052H98.2859ZM129.31 32.1753H123.619L109.686 9.31938H109.531C110.128 14.8459 109.847 26.5883 109.901 32.1753H105.721V3.49052H111.34L125.231 26.2315H125.35C124.956 21.3943 125.1 8.57566 125.076 3.49052H129.322L129.31 32.1753ZM159.999 17.5548C160.131 32.0664 148.378 32.7557 136.966 32.1753V3.49052C147.996 2.96447 160.077 3.18819 159.999 17.5548ZM155.12 17.712C155.425 8.55752 148.981 6.78588 141.594 7.43286V28.2269C149.053 28.9283 155.508 26.419 155.12 17.6999V17.712Z" fill="#1D1D1B"/>
<path d="M37.6231 17.8613C35.8315 21.9548 31.9797 24.5125 27.7755 24.3552C26.2765 20.6789 22.8785 18.1757 18.752 17.6436C22.3351 9.23286 33.9743 9.53519 37.6231 17.8613Z" fill="#3C5774"/>
<path d="M24.1559 35.839C19.2052 35.6757 14.7382 31.8664 14.5352 26.7994C16.8076 24.7113 18.1818 21.8049 18.3631 18.7031C26.9388 19.3622 30.4025 29.7925 24.1559 35.839Z" fill="#129294"/>
<path d="M16.5182 18.3947C14.6518 18.6851 12.744 18.5212 10.9526 17.9166C9.1612 17.312 7.53779 16.2841 6.21673 14.918C2.46042 16.3329 0.113466 20.118 0 24.6468C6.41978 31.6064 17.199 27.4464 17.3185 18.304C17.0318 18.3343 16.7691 18.3584 16.5182 18.3947ZM16.5182 16.738L16.8168 17.2338C16.7213 17.0947 16.5959 16.9012 16.5003 16.738H16.5182Z" fill="#A9D08F"/>
<path d="M16.7993 17.2325C15.032 17.5783 13.2075 17.4742 11.4897 16.9296C9.77192 16.3851 8.2146 15.4171 6.95761 14.1125C3.66113 10.5572 3.29087 5.14552 5.8767 0.616667C7.8448 0.206959 9.88704 0.366197 11.77 1.07618C13.6529 1.78616 15.3006 3.01824 16.5246 4.63157C14.1298 8.39856 14.3747 13.4656 16.7993 17.2325Z" fill="#F0826E"/>
<path d="M16.8046 17.232C15.0869 17.5696 13.3141 17.4831 11.6363 16.98C9.95858 16.4769 8.42521 15.572 7.16602 14.3418C8.42605 15.5707 9.95949 16.4748 11.637 16.9778C13.3145 17.4808 15.0869 17.568 16.8046 17.232Z" fill="#F0826E"/>
<path d="M29.3876 10.3039C27.0119 10.0266 24.6116 10.5391 22.5487 11.7639C20.4858 12.9888 18.8723 14.8596 17.9514 17.0941C12.4513 9.33642 18.9666 -1.14827 28.3246 0.296854C29.2986 1.74873 29.905 3.42087 30.0904 5.16595C30.2757 6.91103 30.0344 8.67549 29.3876 10.3039Z" fill="#EFBC3F"/>
</svg>
