<svg width="283" height="235" viewBox="0 0 283 235" fill="none" xmlns="http://www.w3.org/2000/svg">
<g clip-path="url(#clip0_901_1346)">
<g style="mix-blend-mode:multiply">
<g style="mix-blend-mode:multiply">
<path d="M-253.345 135.742C-271.956 108.913 -288.888 81.9146 -295.941 52.0613C-302.889 21.9598 -300.231 -11.1112 -283.805 -34.8805C-267.276 -58.898 -236.706 -73.4987 -205.462 -86.6465C-174.595 -99.6609 -142.78 -111.108 -110.266 -109.694C-77.4791 -108.166 -43.9932 -93.7782 -3.99335 -75.7716C36.0066 -57.7649 82.143 -36.0061 92.9546 -5.15498C103.766 25.6961 79.253 65.6396 67.1493 108.177C55.0457 150.714 55.456 195.597 32.0188 218.46C8.58165 241.323 -38.3255 242.033 -79.9959 237.935C-121.289 233.703 -157.618 224.547 -185.843 206.821C-214.068 189.095 -234.735 162.57 -253.345 135.742Z" fill="#1E9394" fill-opacity="0.8"/>
</g>
</g>
<g style="mix-blend-mode:multiply">
<g style="mix-blend-mode:multiply">
<path d="M74.7108 65.9418C42.5017 60.5688 11.3388 53.8738 -14.998 38.1055C-41.4403 22.0891 -63.3291 -2.88515 -68.9603 -31.2399C-74.697 -59.8427 -63.9036 -91.9417 -51.5976 -123.511C-39.4587 -154.717 -25.5348 -185.508 -1.89359 -207.83C22.0201 -230.268 55.6511 -244.236 96.4128 -260.35C137.174 -276.464 184.9 -294.359 214.569 -280.59C244.238 -266.82 255.85 -221.385 277.961 -183.036C300.071 -144.688 332.574 -113.674 332.675 -80.9243C332.776 -48.175 300.642 -14.0537 268.701 12.9591C236.927 39.6082 205.073 59.2644 172.707 67.1333C140.342 75.0021 106.919 71.3147 74.7108 65.9418Z" fill="#A8D08E" fill-opacity="0.8"/>
</g>
</g>
</g>
<defs>
<clipPath id="clip0_901_1346">
<rect width="283" height="235" fill="white"/>
</clipPath>
</defs>
</svg>
