<svg width="198" height="624" viewBox="0 0 198 624" fill="none" xmlns="http://www.w3.org/2000/svg">
<g clip-path="url(#clip0_1011_1232)">
<g style="mix-blend-mode:multiply">
<g style="mix-blend-mode:multiply">
<path d="M151.656 19.7739C111.677 38.8951 73.5506 59.3704 45.0746 90.0214C16.5526 121.038 -2.71632 162.179 0.451579 201.712C3.57378 241.611 29.5306 279.952 57.2626 317.028C84.6416 353.687 114.194 389.133 153.27 409.77C192.744 430.458 241.742 436.337 300.827 442.385C359.912 448.433 428.731 454.232 462.289 424.976C495.848 395.719 494.146 331.406 508.748 272.528C523.351 213.649 554.213 160.572 542.21 117.304C530.208 74.0364 475.695 40.9951 424.066 17.2659C372.789 -6.0457 323.999 -20.0965 278.909 -18.3965C233.82 -16.6965 191.635 0.652691 151.656 19.7739Z" fill="#1E9394" fill-opacity="0.8"/>
</g>
</g>
<g style="mix-blend-mode:multiply">
<g style="mix-blend-mode:multiply">
<path d="M300.469 116.132C259.07 100.412 218.002 86.9819 176.451 87.6509C134.609 88.5419 92.0414 103.209 66.2464 133.054C40.1594 163.121 31.0864 208.69 24.1454 254.668C17.2544 300.099 12.7364 346.263 25.3444 389.028C38.1934 432.117 68.1674 471.807 105.049 518.943C141.931 566.078 185.771 620.112 229.876 624.106C273.981 628.1 318.35 582.055 370.23 551.64C422.111 521.225 481.21 506.664 503.496 467.799C525.782 428.934 511.205 366.312 492.041 312.274C472.828 258.783 448.787 213.55 416.168 181.98C383.548 150.409 341.868 131.853 300.469 116.132Z" fill="#A8D08E" fill-opacity="0.8"/>
</g>
</g>
</g>
<defs>
<clipPath id="clip0_1011_1232">
<rect width="198" height="624" fill="white"/>
</clipPath>
</defs>
</svg>
