<svg width="200" height="112" viewBox="0 0 200 112" fill="none" xmlns="http://www.w3.org/2000/svg">
<g clip-path="url(#clip0_839_1219)">
<path d="M117.761 37.6064C99.4775 11.8295 82.9155 -14.2666 76.5375 -44.1344C70.2725 -74.2647 73.9155 -108.26 91.3785 -133.953C108.955 -159.909 140.627 -177.468 172.949 -193.603C204.881 -209.569 237.739 -224.016 270.952 -225.394C304.441 -226.678 338.286 -214.894 378.691 -199.98C419.096 -185.066 465.673 -166.853 475.867 -136.293C486.062 -105.732 459.875 -62.8243 446.308 -18.3442C432.74 26.1359 431.906 71.925 407.297 97.3014C382.688 122.678 334.695 127.473 292.193 126.904C250.08 126.166 213.18 119.97 184.81 104.321C156.439 88.6719 136.044 63.3832 117.761 37.6064Z" fill="#EFBC3F" fill-opacity="0.8"/>
<g style="mix-blend-mode:multiply">
<g style="mix-blend-mode:multiply">
<path d="M272.982 2.11618C236.765 21.2031 200.156 38.4291 158.626 44.6038C116.736 50.6501 69.7863 45.9401 34.7353 26.5439C-0.675686 7.01924 -24.0507 -27.4868 -45.4347 -62.6589C-66.5957 -97.4075 -85.6287 -133.117 -86.5597 -168.907C-87.3537 -204.991 -70.0477 -241.155 -48.2167 -284.311C-26.3857 -327.466 0.192333 -377.189 42.7933 -387.456C85.3943 -397.724 144.018 -368.537 205.189 -352.898C266.359 -337.26 329.715 -335.3 364.118 -308.218C398.521 -281.135 403.748 -229.355 401.711 -183.609C399.452 -138.287 389.792 -98.7052 367.297 -68.5237C344.803 -38.3421 309.199 -16.9707 272.982 2.11618Z" fill="#F0826E" fill-opacity="0.8"/>
</g>
</g>
</g>
<defs>
<clipPath id="clip0_839_1219">
<rect width="200" height="112" fill="white"/>
</clipPath>
</defs>
</svg>
