<svg width="274" height="193" viewBox="0 0 274 193" fill="none" xmlns="http://www.w3.org/2000/svg">
<g style="mix-blend-mode:multiply">
<path d="M156.029 350.913C137.143 360.394 117.62 368.88 92.6635 371.414C67.4529 373.873 36.7851 370.535 10.5544 359.617C-15.9309 348.624 -37.954 329.896 -58.8581 310.851C-79.5328 292.034 -99.0634 272.746 -107.169 253.739C-115.249 234.577 -111.904 215.697 -107.167 193.188C-102.43 170.68 -96.0718 144.771 -71.2983 140.084C-46.5249 135.397 -3.33635 151.933 38.616 161.324C80.5684 170.715 121.03 172.888 148.465 187.873C175.9 202.858 190.079 230.428 198.399 254.665C206.489 278.673 208.695 299.503 200.814 315.116C192.933 330.729 174.915 341.433 156.029 350.913Z" fill="#1E9394" fill-opacity="0.8"/>
</g>
<g style="mix-blend-mode:multiply">
<path d="M126.48 249.96C130.917 268.576 133.857 286.506 127.201 301.116C120.351 315.775 104.088 327.279 80.0761 329.059C55.8709 330.889 23.7343 322.828 -8.35979 313.907C-40.077 305.105 -71.9347 295.277 -98.9394 280.201C-126.127 264.959 -148.462 244.469 -174.795 219.678C-201.127 194.887 -231.08 165.914 -227.192 149.24C-223.305 132.567 -185.577 128.195 -157.285 117.279C-128.994 106.364 -110.333 88.9553 -80.7526 90.657C-51.1719 92.3586 -11.0483 113.053 22.5926 133.253C55.8567 153.335 82.8212 173.088 99.2761 192.507C115.731 211.927 122.042 231.345 126.48 249.96Z" fill="#A8D08E" fill-opacity="0.8"/>
</g>
</svg>
