<svg width="297" height="205" viewBox="0 0 297 205" fill="none" xmlns="http://www.w3.org/2000/svg">
<g clip-path="url(#clip0_901_1351)">
<path d="M177.866 205.122C171.407 181.548 166.174 157.841 168.618 131.737C171.196 105.418 181.287 76.5976 198.775 56.0206C216.399 35.2266 241.584 22.7786 266.884 11.6046C291.885 0.542604 317.165 -9.14339 339.742 -7.60639C362.484 -5.96539 382.523 6.89661 406.258 22.9776C429.992 39.0576 457.121 58.4676 457.081 85.4766C457.04 112.487 429.83 147.096 410.726 184.083C391.623 221.071 380.761 260.221 358.553 279.943C336.345 299.664 303.09 299.844 274.722 295.879C246.654 291.8 223.309 283.474 207.809 267.75C192.309 252.025 184.325 228.696 177.866 205.122Z" fill="#EFBC3F" fill-opacity="0.8"/>
<g style="mix-blend-mode:multiply">
<g style="mix-blend-mode:multiply">
<path d="M283.814 174.946C308.92 192.822 332.589 211.387 348.399 235.644C364.196 260.156 372.413 290.375 365.431 316.735C358.436 343.349 335.962 366.088 312.425 387.752C289.18 409.178 264.592 429.514 235.27 438.653C205.669 447.777 171.334 445.704 130.058 442.5C88.7817 439.295 40.8577 434.721 21.3897 410.778C1.92297 386.836 10.9135 343.527 8.05557 301.881C5.19777 260.235 -9.52163 220.507 3.97627 192.71C17.4743 164.913 58.8967 149.287 97.2077 139.606C135.227 130.164 170.413 126.682 201.143 133.401C231.874 140.12 258.709 157.069 283.814 174.946Z" fill="#F0826E" fill-opacity="0.8"/>
</g>
</g>
</g>
<defs>
<clipPath id="clip0_901_1351">
<rect width="297" height="205" fill="white"/>
</clipPath>
</defs>
</svg>
