<svg width="206" height="216" viewBox="0 0 206 216" fill="none" xmlns="http://www.w3.org/2000/svg">
<g clip-path="url(#clip0_1006_1202)">
<g style="mix-blend-mode:multiply">
<g style="mix-blend-mode:multiply">
<path d="M229.945 -209.978C262.075 -204.167 293.139 -197.049 319.235 -180.926C345.433 -164.554 366.939 -139.29 372.132 -110.868C377.426 -82.1975 366.135 -50.2572 353.338 -18.8671C340.715 12.1617 326.312 42.7522 302.322 64.7436C278.058 86.8468 244.206 100.351 203.189 115.902C162.172 131.454 114.163 148.692 84.7033 134.522C55.2433 120.352 44.3323 74.7739 22.8123 36.137C1.29299 -2.5 -30.7341 -33.9467 -30.3282 -66.686C-29.9222 -99.4253 2.74398 -133.095 35.1073 -159.662C67.2983 -185.868 99.4613 -205.083 131.953 -212.507C164.445 -219.931 197.815 -215.789 229.945 -209.978Z" fill="#1E9394" fill-opacity="0.8"/>
</g>
</g>
<g style="mix-blend-mode:multiply">
<g style="mix-blend-mode:multiply">
<path d="M141.936 -113.727C168.511 -132.703 195.28 -150.005 225.053 -157.478C255.076 -164.85 288.213 -162.668 312.245 -146.6C336.527 -130.431 351.592 -100.102 365.213 -69.0776C378.695 -38.4284 390.622 -6.80997 389.69 25.6909C388.646 58.4663 374.742 92.1241 357.314 132.341C339.885 172.558 318.792 218.96 288.076 230.202C257.36 241.445 217.021 217.528 174.27 206.046C131.52 194.564 86.6072 195.617 63.3782 172.531C40.1492 149.445 38.7442 102.596 42.2292 60.9093C45.8522 19.5979 54.4782 -16.8254 71.7992 -45.2754C89.1212 -73.7255 115.362 -94.7512 141.936 -113.727Z" fill="#A8D08E" fill-opacity="0.8"/>
</g>
</g>
</g>
<defs>
<clipPath id="clip0_1006_1202">
<rect width="206" height="216" fill="white"/>
</clipPath>
</defs>
</svg>
