<svg width="930" height="401" viewBox="0 0 930 401" fill="none" xmlns="http://www.w3.org/2000/svg">
<path d="M376.125 29.125C368.401 29.125 360.993 32.1935 355.531 37.6555C350.069 43.1175 347 50.5256 347 58.25V174.896C347.038 182.595 350.124 189.965 355.582 195.396C361.04 200.827 368.426 203.875 376.125 203.875H456.219C458.15 203.875 460.002 203.108 461.367 201.742C462.733 200.377 463.5 198.525 463.5 196.594C463.5 194.663 462.733 192.811 461.367 191.445C460.002 190.08 458.15 189.312 456.219 189.312H376.125C372.919 189.313 369.803 188.256 367.26 186.305C364.716 184.354 362.888 181.618 362.058 178.522L444.19 127.975L463.5 139.552L565.438 78.3899V123.781C565.438 125.712 566.205 127.564 567.57 128.93C568.936 130.295 570.788 131.062 572.719 131.062C574.65 131.062 576.502 130.295 577.867 128.93C579.233 127.564 580 125.712 580 123.781V58.25C580 50.5256 576.931 43.1175 571.469 37.6555C566.007 32.1935 558.599 29.125 550.875 29.125H376.125ZM430.123 119.529L361.562 161.717V78.3899L430.123 119.529ZM361.562 61.4101V58.25C361.562 54.3878 363.097 50.6838 365.828 47.9528C368.559 45.2218 372.263 43.6875 376.125 43.6875H550.875C554.737 43.6875 558.441 45.2218 561.172 47.9528C563.903 50.6838 565.438 54.3878 565.438 58.25V61.4101L463.5 122.573L361.562 61.4101Z" fill="black"/>
<path d="M580 182.031C580 195.549 574.63 208.513 565.072 218.072C555.513 227.63 542.549 233 529.031 233C515.513 233 502.549 227.63 492.991 218.072C483.432 208.513 478.062 195.549 478.062 182.031C478.062 168.513 483.432 155.549 492.991 145.991C502.549 136.432 515.513 131.063 529.031 131.062C542.549 131.062 555.513 136.432 565.072 145.991C574.63 155.549 580 168.513 580 182.031ZM550.977 157.581C550.157 157.089 549.247 156.764 548.301 156.624C547.355 156.484 546.391 156.531 545.463 156.764C544.535 156.996 543.663 157.409 542.895 157.979C542.127 158.549 541.478 159.265 540.987 160.086L523.949 188.482L515.983 180.517C514.616 179.15 512.762 178.381 510.828 178.381C508.895 178.381 507.04 179.15 505.673 180.517C504.306 181.884 503.538 183.738 503.538 185.672C503.538 187.605 504.306 189.46 505.673 190.827L516.944 202.084C518.118 203.259 519.543 204.152 521.113 204.693C522.683 205.235 524.356 205.411 526.004 205.209C527.653 205.007 529.233 204.431 530.626 203.526C532.019 202.622 533.186 201.411 534.041 199.987L553.482 167.571C553.973 166.75 554.299 165.841 554.439 164.895C554.579 163.949 554.531 162.985 554.299 162.057C554.066 161.129 553.653 160.256 553.083 159.488C552.513 158.72 551.797 158.072 550.977 157.581Z" fill="#35A077"/>
<path d="M925.867 383.638C928.429 382.607 929.669 379.695 928.638 377.133L911.837 335.388C910.805 332.826 907.893 331.585 905.331 332.616C902.77 333.647 901.529 336.56 902.56 339.121L917.495 376.229L880.388 391.164C877.826 392.195 876.585 395.107 877.616 397.669C878.647 400.231 881.56 401.471 884.121 400.44L925.867 383.638ZM3.76796 373.677C5.79764 372.91 7.87583 372.141 10.0017 371.372L6.59922 361.969C4.43041 362.753 2.3077 363.538 0.232045 364.323L3.76796 373.677ZM22.9875 366.863C27.2196 365.451 31.605 364.039 36.1384 362.632L33.1729 353.081C28.5762 354.509 24.124 355.942 19.8221 357.377L22.9875 366.863ZM49.1495 358.721C53.4421 357.471 57.8483 356.226 62.3642 354.989L59.7213 345.345C55.1563 346.595 50.6993 347.854 46.3542 349.119L49.1495 358.721ZM75.7835 351.417C80.0943 350.302 84.493 349.195 88.9765 348.097L86.5974 338.384C82.0732 339.492 77.633 340.61 73.2797 341.736L75.7835 351.417ZM102.392 344.897C106.797 343.874 111.275 342.861 115.825 341.858L113.672 332.093C109.087 333.103 104.572 334.125 100.13 335.156L102.392 344.897ZM129.233 338.978C133.699 338.043 138.227 337.119 142.815 336.207L140.865 326.399C136.244 327.317 131.683 328.248 127.184 329.19L129.233 338.978ZM156.229 333.607C160.73 332.757 165.284 331.919 169.888 331.093L168.124 321.25C163.489 322.081 158.904 322.925 154.373 323.781L156.229 333.607ZM183.336 328.745C187.852 327.976 192.414 327.221 197.02 326.479L195.43 316.606C190.795 317.353 186.204 318.113 181.659 318.886L183.336 328.745ZM210.529 324.361C215.063 323.67 219.636 322.992 224.247 322.328L222.822 312.43C218.184 313.098 213.583 313.78 209.022 314.475L210.529 324.361ZM237.795 320.434C242.346 319.817 246.931 319.214 251.548 318.626L250.284 308.706C245.64 309.298 241.028 309.904 236.451 310.525L237.795 320.434ZM265.124 316.95C269.679 316.406 274.263 315.877 278.875 315.363L277.768 305.425C273.13 305.942 268.519 306.474 263.939 307.021L265.124 316.95ZM292.51 313.898C297.065 313.427 301.647 312.97 306.253 312.53L305.301 302.575C300.669 303.018 296.061 303.477 291.48 303.951L292.51 313.898ZM319.944 311.273C324.5 310.873 329.078 310.488 333.677 310.12L332.879 300.152C328.254 300.522 323.65 300.909 319.069 301.312L319.944 311.273ZM347.422 309.073C351.977 308.744 356.551 308.431 361.143 308.135L360.5 298.155C355.881 298.453 351.281 298.768 346.701 299.099L347.422 309.073ZM374.934 307.299C379.488 307.041 384.059 306.8 388.645 306.576L388.157 296.588C383.545 296.813 378.948 297.056 374.369 297.315L374.934 307.299ZM402.449 305.956C407.011 305.769 411.587 305.6 416.176 305.448L415.846 295.453C411.23 295.606 406.628 295.776 402.04 295.964L402.449 305.956ZM429.956 305.048C434.535 304.933 439.125 304.836 443.726 304.758L443.556 294.76C438.928 294.838 434.311 294.936 429.706 295.051L429.956 305.048ZM457.486 304.581C462.076 304.54 466.676 304.519 471.285 304.516L471.279 294.516C466.643 294.519 462.015 294.54 457.398 294.581L457.486 304.581ZM485.028 304.565C489.618 304.601 494.215 304.656 498.819 304.731L498.981 294.732C494.349 294.657 489.723 294.601 485.106 294.566L485.028 304.565ZM512.571 305.013C517.154 305.127 521.743 305.261 526.336 305.415L526.672 295.42C522.049 295.265 517.431 295.131 512.82 295.016L512.571 305.013ZM540.102 305.938C544.68 306.132 549.261 306.347 553.845 306.582L554.359 296.596C549.744 296.358 545.133 296.142 540.526 295.947L540.102 305.938ZM567.605 307.354C572.178 307.631 576.754 307.93 581.33 308.25L582.029 298.275C577.421 297.952 572.815 297.651 568.211 297.372L567.605 307.354ZM595.059 309.277C599.632 309.641 604.204 310.027 608.776 310.436L609.666 300.476C605.062 300.064 600.457 299.675 595.853 299.309L595.059 309.277ZM622.476 311.729C627.041 312.182 631.605 312.659 636.166 313.159L637.256 303.219C632.66 302.715 628.063 302.235 623.465 301.778L622.476 311.729ZM649.836 314.729C654.39 315.276 658.941 315.847 663.487 316.441L664.785 306.526C660.203 305.926 655.617 305.351 651.029 304.8L649.836 314.729ZM677.122 318.3C681.664 318.945 686.201 319.614 690.732 320.308L692.246 310.423C687.678 309.723 683.105 309.049 678.527 308.399L677.122 318.3ZM704.313 322.467C708.841 323.213 713.363 323.986 717.878 324.784L719.619 314.936C715.066 314.131 710.506 313.353 705.939 312.6L704.313 322.467ZM731.396 327.257C735.907 328.11 740.409 328.99 744.901 329.897L746.88 320.094C742.347 319.179 737.805 318.292 733.255 317.431L731.396 327.257ZM758.359 332.701C762.842 333.665 767.315 334.657 771.777 335.676L774.005 325.927C769.501 324.898 764.986 323.897 760.461 322.924L758.359 332.701ZM785.165 338.829C789.616 339.909 794.054 341.017 798.479 342.154L800.968 332.469C796.499 331.32 792.017 330.201 787.523 329.111L785.165 338.829ZM811.786 345.673C816.208 346.876 820.615 348.109 825.008 349.372L827.771 339.762C823.332 338.485 818.879 337.239 814.411 336.024L811.786 345.673ZM838.186 353.268C842.575 354.601 846.947 355.965 851.302 357.361L854.354 347.838C849.95 346.427 845.53 345.047 841.093 343.7L838.186 353.268ZM864.331 361.65C868.68 363.119 873.011 364.622 877.322 366.157L880.677 356.737C876.314 355.183 871.932 353.663 867.533 352.176L864.331 361.65ZM890.195 370.862C894.492 372.474 898.769 374.119 903.023 375.799L906.695 366.497C902.387 364.796 898.056 363.13 893.706 361.499L890.195 370.862ZM915.735 380.947C917.843 381.823 919.944 382.707 922.04 383.6L925.96 374.4C923.836 373.495 921.707 372.6 919.572 371.713L915.735 380.947Z" fill="black"/>
</svg>
