<svg width="223" height="223" viewBox="0 0 223 223" fill="none" xmlns="http://www.w3.org/2000/svg">
<path d="M111.501 18.584C60.2664 18.584 18.584 51.9318 18.584 92.9173C18.584 119.203 35.2744 142.843 62.7183 156.247C64.1246 156.934 65.0423 158.349 65.0423 159.915V196.417C65.0423 199.713 68.8054 201.595 71.4423 199.617L113.64 167.969C114.304 167.471 115.11 167.194 115.939 167.163C165.118 165.312 204.417 132.713 204.417 92.9173C204.417 51.9318 162.735 18.584 111.501 18.584ZM111.501 148.667H109.74C108.874 148.667 108.032 148.948 107.34 149.467L90.0255 162.451C87.3885 164.429 83.6256 162.547 83.6256 159.251V147.538C83.6256 145.884 82.6074 144.4 81.0639 143.806L77.6697 142.498C52.6844 132.881 37.1673 113.879 37.1673 92.9173C37.1673 62.1712 70.5151 37.1673 111.501 37.1673C152.486 37.1673 185.834 62.1712 185.834 92.9173C185.834 123.663 152.486 148.667 111.501 148.667Z" fill="black"/>
<path d="M102.209 61.75C102.209 58.4363 104.895 55.75 108.209 55.75H114.792C118.106 55.75 120.792 58.4363 120.792 61.75V96.2083C120.792 99.522 118.106 102.208 114.792 102.208H108.209C104.895 102.208 102.209 99.522 102.209 96.2083V61.75ZM102.209 117.5C102.209 114.186 104.895 111.5 108.209 111.5H114.792C118.106 111.5 120.792 114.186 120.792 117.5V124.083C120.792 127.397 118.106 130.083 114.792 130.083H108.209C104.895 130.083 102.209 127.397 102.209 124.083V117.5Z" fill="#DC4327"/>
</svg>
